<?xml version="1.0" standalone="no"?>
<!DOCTYPE svg PUBLIC "-//W3C//DTD SVG 20010904//EN"
 "http://www.w3.org/TR/2001/REC-SVG-20010904/DTD/svg10.dtd">
<svg version="1.0" xmlns="http://www.w3.org/2000/svg"
 width="346.000000pt" height="346.000000pt" viewBox="0 0 346.000000 346.000000"
 preserveAspectRatio="xMidYMid meet">
<metadata>
Created by potrace 1.11, written by Peter Selinger 2001-2013
</metadata>
<g transform="translate(0.000000,346.000000) scale(0.100000,-0.100000)"
fill="#000000" stroke="none">
<path d="M1635 3230 c-3 -5 -39 -10 -80 -10 -41 0 -77 -4 -80 -10 -3 -5 -28
-10 -55 -10 -31 0 -63 -8 -85 -20 -20 -11 -47 -20 -60 -20 -13 0 -40 -9 -60
-20 -20 -11 -49 -20 -65 -20 -16 0 -32 -4 -35 -10 -3 -5 -15 -10 -25 -10 -10
0 -20 -4 -22 -8 -1 -4 -29 -20 -60 -36 -32 -15 -58 -33 -58 -39 0 -7 -27 -25
-60 -40 -33 -15 -60 -33 -60 -40 0 -7 -18 -20 -40 -30 -22 -9 -40 -24 -40 -32
0 -8 -7 -15 -16 -15 -9 0 -18 -9 -21 -20 -3 -11 -12 -20 -20 -20 -8 0 -17 -9
-20 -20 -3 -11 -12 -20 -20 -20 -8 0 -17 -9 -20 -20 -3 -11 -14 -20 -24 -20
-12 0 -19 -7 -19 -20 0 -12 -7 -20 -16 -20 -9 0 -18 -9 -21 -19 -3 -11 -13
-21 -24 -24 -12 -3 -19 -14 -19 -30 0 -16 -7 -26 -20 -30 -13 -3 -20 -14 -20
-30 0 -16 -7 -26 -20 -30 -13 -3 -20 -14 -20 -30 0 -16 -7 -26 -20 -30 -15 -4
-20 -14 -20 -40 0 -26 -5 -36 -20 -40 -16 -4 -20 -14 -20 -50 0 -36 -4 -46
-20 -50 -16 -4 -20 -14 -20 -50 0 -36 -4 -46 -20 -50 -18 -5 -20 -14 -20 -80
0 -66 -2 -75 -20 -80 -19 -5 -20 -14 -20 -257 0 -243 1 -252 20 -257 18 -5 20
-14 20 -80 0 -66 2 -75 20 -80 17 -5 20 -14 20 -60 0 -46 3 -56 20 -60 15 -4
20 -14 20 -40 0 -26 5 -36 20 -40 15 -4 20 -14 20 -40 0 -26 5 -36 20 -40 15
-4 20 -14 20 -40 0 -26 5 -36 20 -40 14 -4 20 -14 20 -34 0 -22 5 -29 20 -29
12 0 20 -7 20 -16 0 -9 9 -18 20 -21 13 -4 20 -14 20 -30 0 -16 7 -27 20 -30
11 -3 20 -12 20 -20 0 -8 9 -17 20 -20 11 -3 20 -14 20 -24 0 -12 7 -19 20
-19 12 0 20 -7 20 -16 0 -9 9 -18 20 -21 11 -3 20 -12 20 -19 0 -8 18 -22 40
-31 22 -10 40 -23 40 -30 0 -7 18 -21 40 -30 22 -10 40 -23 40 -29 0 -15 338
-184 367 -184 12 0 38 -9 58 -20 20 -11 49 -20 65 -20 16 0 32 -4 35 -10 3 -5
30 -10 60 -10 30 0 57 -5 60 -10 8 -14 422 -14 430 0 3 6 30 10 60 10 30 0 57
5 60 10 3 6 21 10 40 10 19 0 37 5 40 10 3 6 21 10 40 10 19 0 37 5 40 10 3 6
21 10 40 10 19 0 37 4 40 10 3 5 15 10 25 10 10 0 20 4 22 8 2 4 65 38 141 76
75 37 137 73 137 80 0 6 18 19 40 29 22 9 40 23 40 31 0 7 9 16 20 19 11 3 20
12 20 20 0 8 9 17 20 20 11 3 20 12 20 20 0 8 9 17 20 20 11 3 20 12 20 20 0
8 9 17 20 20 11 3 20 12 20 20 0 8 9 17 20 20 11 3 20 12 20 20 0 8 9 17 20
20 11 3 20 12 20 21 0 9 8 16 20 16 15 0 20 7 20 29 0 20 6 30 20 34 13 3 20
14 20 30 0 16 7 26 20 30 15 4 20 14 20 40 0 26 5 36 20 40 15 4 20 14 20 40
0 26 5 36 20 40 15 4 20 14 20 40 0 26 5 36 20 40 17 4 20 14 20 60 0 46 3 55
20 60 18 5 20 14 20 110 0 96 2 105 20 110 19 5 20 14 20 167 0 153 -1 162
-20 167 -18 5 -20 14 -20 110 0 96 -2 105 -20 110 -17 5 -20 14 -20 60 0 46
-3 56 -20 60 -16 4 -20 14 -20 50 0 36 -4 46 -20 50 -15 4 -20 14 -20 40 0 26
-5 36 -20 40 -13 4 -20 14 -20 30 0 16 -7 27 -20 30 -13 4 -20 14 -20 30 0 16
-7 27 -20 30 -13 4 -20 14 -20 30 0 16 -7 27 -20 30 -11 3 -20 12 -20 20 0 8
-9 17 -20 20 -13 4 -20 14 -20 30 0 16 -7 27 -19 30 -11 3 -21 13 -24 24 -3
10 -12 19 -20 19 -8 0 -17 9 -20 20 -3 11 -12 20 -21 20 -9 0 -16 7 -16 15 0
8 -18 23 -40 32 -22 10 -40 23 -40 30 0 7 -18 21 -40 30 -22 10 -40 23 -40 29
0 16 -379 204 -412 204 -15 0 -30 5 -33 10 -3 6 -21 10 -40 10 -19 0 -37 5
-40 10 -3 6 -21 10 -40 10 -19 0 -37 5 -40 10 -3 6 -39 10 -80 10 -41 0 -77 5
-80 10 -4 6 -53 10 -115 10 -62 0 -111 -4 -115 -10z"/>
</g>
</svg>
